HIERARCHY
ROOT hip
{
  OFFSET -0.199065 82.1288 -0.160195
  CHANNELS 6 Xposition Yposition Zposition Zrotation Xrotation Yrotation
  JOINT abdomen
  {
    OFFSET 0 7.2397 0
    CHANNELS 6 Xposition Yposition Zposition Zrotation Xrotation Yrotation
    JOINT chest
    {
      OFFSET 0 16.546 0
      CHANNELS 6 Xposition Yposition Zposition Zrotation Xrotation Yrotation
      JOINT neck
      {
        OFFSET 0 34.2149 0
        CHANNELS 6 Xposition Yposition Zposition Zrotation Xrotation Yrotation
        JOINT head
        {
          OFFSET 0 6.2923 0
          CHANNELS 6 Xposition Yposition Zposition Zrotation Xrotation Yrotation
          End Site
          {
            OFFSET 0 21.2161 0
          }
        }
      }
      JOINT lCollar
      {
        OFFSET 4.0639 26.6115 -1.1234
        CHANNELS 6 Xposition Yposition Zposition Zrotation Xrotation Yrotation
        JOINT lShldr
        {
          OFFSET 14.1772 0 0
          CHANNELS 6 Xposition Yposition Zposition Zrotation Xrotation Yrotation
          JOINT lForeArm
          {
            OFFSET 26.1234 0 0
            CHANNELS 6 Xposition Yposition Zposition Zrotation Xrotation Yrotation
            JOINT lHand
            {
              OFFSET 27.7188 0 0
              CHANNELS 6 Xposition Yposition Zposition Zrotation Xrotation Yrotation
              JOINT lThumb1
              {
                OFFSET 2.2979 -0.4685 1.8313
                CHANNELS 6 Xposition Yposition Zposition Zrotation Xrotation Yrotation
                JOINT lThumb2
                {
                  OFFSET 5.2953 0 0
                  CHANNELS 6 Xposition Yposition Zposition Zrotation Xrotation Yrotation
                  JOINT lThumb3
                  {
                    OFFSET 3.0181 0 0
                    CHANNELS 6 Xposition Yposition Zposition Zrotation Xrotation Yrotation
                    End Site
                    {
                      OFFSET 2.6294 0 0
                    }
                  }
                }
              }
              JOINT lIndex1
              {
                OFFSET 9.3793 0.2991 2.5924
                CHANNELS 6 Xposition Yposition Zposition Zrotation Xrotation Yrotation
                JOINT lIndex2
                {
                  OFFSET 4.3461 0 0
                  CHANNELS 6 Xposition Yposition Zposition Zrotation Xrotation Yrotation
                  JOINT lIndex3
                  {
                    OFFSET 2.1666 0 0
                    CHANNELS 6 Xposition Yposition Zposition Zrotation Xrotation Yrotation
                    End Site
                    {
                      OFFSET 2.2048 0 0
                    }
                  }
                }
              }
              JOINT lMid1
              {
                OFFSET 9.4769 0.8376 0.2947
                CHANNELS 6 Xposition Yposition Zposition Zrotation Xrotation Yrotation
                JOINT lMid2
                {
                  OFFSET 4.772 0 0
                  CHANNELS 6 Xposition Yposition Zposition Zrotation Xrotation Yrotation
                  JOINT lMid3
                  {
                    OFFSET 2.8722 0 0
                    CHANNELS 6 Xposition Yposition Zposition Zrotation Xrotation Yrotation
                    End Site
                    {
                      OFFSET 2.0959 0 0
                    }
                  }
                }
              }
              JOINT lRing1
              {
                OFFSET 8.6586 1.0176 -1.7016
                CHANNELS 6 Xposition Yposition Zposition Zrotation Xrotation Yrotation
                JOINT lRing2
                {
                  OFFSET 4.5461 0 0
                  CHANNELS 6 Xposition Yposition Zposition Zrotation Xrotation Yrotation
                  JOINT lRing3
                  {
                    OFFSET 2.506 0 0
                    CHANNELS 6 Xposition Yposition Zposition Zrotation Xrotation Yrotation
                    End Site
                    {
                      OFFSET 2.2023 0 0
                    }
                  }
                }
              }
              JOINT lPinky1
              {
                OFFSET 7.6901 0.6618 -3.9096
                CHANNELS 6 Xposition Yposition Zposition Zrotation Xrotation Yrotation
                JOINT lPinky2
                {
                  OFFSET 3.2119 0 0
                  CHANNELS 6 Xposition Yposition Zposition Zrotation Xrotation Yrotation
                  JOINT lPinky3
                  {
                    OFFSET 1.924 0 0
                    CHANNELS 6 Xposition Yposition Zposition Zrotation Xrotation Yrotation
                    End Site
                    {
                      OFFSET 1.7829 0 0
                    }
                  }
                }
              }
            }
          }
        }
      }
      JOINT rCollar
      {
        OFFSET -4.0677 26.6109 -1.1234
        CHANNELS 6 Xposition Yposition Zposition Zrotation Xrotation Yrotation
        JOINT rShldr
        {
          OFFSET -14.1772 0 0
          CHANNELS 6 Xposition Yposition Zposition Zrotation Xrotation Yrotation
          JOINT rForeArm
          {
            OFFSET -26.1234 0 0
            CHANNELS 6 Xposition Yposition Zposition Zrotation Xrotation Yrotation
            JOINT rHand
            {
              OFFSET -27.7188 0 0
              CHANNELS 6 Xposition Yposition Zposition Zrotation Xrotation Yrotation
              JOINT rThumb1
              {
                OFFSET -2.2979 -0.4684 1.8313
                CHANNELS 6 Xposition Yposition Zposition Zrotation Xrotation Yrotation
                JOINT rThumb2
                {
                  OFFSET -5.2953 0 0
                  CHANNELS 6 Xposition Yposition Zposition Zrotation Xrotation Yrotation
                  JOINT rThumb3
                  {
                    OFFSET -3.0181 0 0
                    CHANNELS 6 Xposition Yposition Zposition Zrotation Xrotation Yrotation
                    End Site
                    {
                      OFFSET -2.6294 0 0
                    }
                  }
                }
              }
              JOINT rIndex1
              {
                OFFSET -9.3793 0.2991 2.5924
                CHANNELS 6 Xposition Yposition Zposition Zrotation Xrotation Yrotation
                JOINT rIndex2
                {
                  OFFSET -4.3461 0 0
                  CHANNELS 6 Xposition Yposition Zposition Zrotation Xrotation Yrotation
                  JOINT rIndex3
                  {
                    OFFSET -2.1666 0 0
                    CHANNELS 6 Xposition Yposition Zposition Zrotation Xrotation Yrotation
                    End Site
                    {
                      OFFSET -2.2048 0 0
                    }
                  }
                }
              }
              JOINT rMid1
              {
                OFFSET -9.4769 0.8376 0.2947
                CHANNELS 6 Xposition Yposition Zposition Zrotation Xrotation Yrotation
                JOINT rMid2
                {
                  OFFSET -4.772 0 0
                  CHANNELS 6 Xposition Yposition Zposition Zrotation Xrotation Yrotation
                  JOINT rMid3
                  {
                    OFFSET -2.8722 0 0
                    CHANNELS 6 Xposition Yposition Zposition Zrotation Xrotation Yrotation
                    End Site
                    {
                      OFFSET -2.0959 0 0
                    }
                  }
                }
              }
              JOINT rRing1
              {
                OFFSET -8.6586 1.0176 -1.7016
                CHANNELS 6 Xposition Yposition Zposition Zrotation Xrotation Yrotation
                JOINT rRing2
                {
                  OFFSET -4.5461 0 0
                  CHANNELS 6 Xposition Yposition Zposition Zrotation Xrotation Yrotation
                  JOINT rRing3
                  {
                    OFFSET -2.506 0 0
                    CHANNELS 6 Xposition Yposition Zposition Zrotation Xrotation Yrotation
                    End Site
                    {
                      OFFSET -2.2023 0 0
                    }
                  }
                }
              }
              JOINT rPinky1
              {
                OFFSET -7.6901 0.6618 -3.9096
                CHANNELS 6 Xposition Yposition Zposition Zrotation Xrotation Yrotation
                JOINT rPinky2
                {
                  OFFSET -3.2119 0 0
                  CHANNELS 6 Xposition Yposition Zposition Zrotation Xrotation Yrotation
                  JOINT rPinky3
                  {
                    OFFSET -1.924 0 0
                    CHANNELS 6 Xposition Yposition Zposition Zrotation Xrotation Yrotation
                    End Site
                    {
                      OFFSET -1.7829 0 0
                    }
                  }
                }
              }
            }
          }
        }
      }
    }
  }
  JOINT lThigh
  {
    OFFSET 8.7379 -0.0029 0.0005
    CHANNELS 6 Xposition Yposition Zposition Zrotation Xrotation Yrotation
    JOINT lShin
    {
      OFFSET 0 -46.6676 0
      CHANNELS 6 Xposition Yposition Zposition Zrotation Xrotation Yrotation
      JOINT lFoot
      {
        OFFSET 0 -40.1476 0
        CHANNELS 6 Xposition Yposition Zposition Zrotation Xrotation Yrotation
        JOINT lToes
        {
          OFFSET 0 -8.8846 14.2294
          CHANNELS 6 Xposition Yposition Zposition Zrotation Xrotation Yrotation
          End Site
          {
            OFFSET 0 0 6.296
          }
        }
      }
    }
  }
  JOINT rThigh
  {
    OFFSET -8.7379 0.0029 -0.0005
    CHANNELS 6 Xposition Yposition Zposition Zrotation Xrotation Yrotation
    JOINT rShin
    {
      OFFSET 0 -46.6676 0
      CHANNELS 6 Xposition Yposition Zposition Zrotation Xrotation Yrotation
      JOINT rFoot
      {
        OFFSET 0 -40.1476 0
        CHANNELS 6 Xposition Yposition Zposition Zrotation Xrotation Yrotation
        JOINT rToes
        {
          OFFSET 0 -8.8846 14.2294
          CHANNELS 6 Xposition Yposition Zposition Zrotation Xrotation Yrotation
          End Site
          {
            OFFSET 0 0 6.296
          }
        }
      }
    }
  }
}
MOTION
Frames:	4
Frame Time:	0.0333333
4.40694 82.3575 89.0421 -3.8345 0.631909 -39.8342 0 7.2397 0 2.85049 11.2184 8.77193 -7.10543e-15 16.546 -1.42109e-14 5.41703 24.7346 16.6164 -7.10543e-15 34.2149 1.42109e-14 7.42539 24.2415 -5.42257 0 6.2923 1.42109e-14 -6.83893 -33.0577 4.69236 4.0639 26.6115 -1.1234 -2.54809 -7.22894 -20.735 14.1772 2.84217e-14 -7.10543e-15 -65.6544 -7.39806 -58.613 26.1234 0 1.42109e-14 -122.306 -22.4437 -97.7954 27.7188 -1.42109e-14 1.42109e-14 -2.0938 -26.7382 6.18961 2.2979 -0.4685 1.8313 37.1841 70.9488 -65.3922 5.2953 -2.84217e-14 -1.42109e-14 -13.655 2.43914 4.23129 3.0181 0 0 40.575 -4.26208 10.4488 9.3793 0.2991 2.5924 -15.7189 8.26172 2.10851 4.3461 0 0 -27.9757 -1.11869 5.59659 2.1666 0 -1.42109e-14 -30.2283 -1.57773 5.42759 9.4769 0.8376 0.2947 -15.5575 6.19107 1.8012 4.772 0 1.42109e-14 -44.233 -4.15788 10.4285 2.8722 -7.10543e-15 1.42109e-14 -38.4623 -3.11867 10.6456 8.6586 1.0176 -1.7016 -12.8095 4.05761 0.0155078 4.5461 1.42109e-14 0 -68.2419 -4.98729 7.35473 2.506 0 -1.42109e-14 -26.1841 0.226359 12.1003 7.6901 0.6618 -3.9096 -1.696 -16.7036 -0.578652 3.2119 0 1.42109e-14 -48.2123 -6.75384 15.0248 1.924 0 0 -25.7169 -1.92461 10.2067 -4.0677 26.6109 -1.1234 -6.95516 -5.94253 -6.28694 -14.1772 -2.84217e-14 0 54.8437 21.1124 27.8039 -26.1234 0 0 21.2045 4.98476 120.897 -27.7188 0 -7.10543e-15 -6.13994 0.334825 -6.19894 -2.2979 -0.4684 1.8313 -92.2025 72.3372 115.748 -5.2953 -1.42109e-14 0 20.8062 -0.164006 -7.80917 -3.0181 -1.42109e-14 0 7.44364 -1.87406 -23.1506 -9.3793 0.2991 2.5924 -0.483064 -1.40423 -4.4621 -4.3461 0 -1.42109e-14 11.3883 0.0664268 -2.10804 -2.1666 0 -1.42109e-14 35.2116 -1.89995 -5.61245 -9.4769 0.8376 0.2947 -5.74439 -0.492407 -10.345 -4.772 1.77636e-15 0 99.6663 -15.9161 -13.5329 -2.8722 0 1.42109e-14 64.9769 -7.76861 -13.6636 -8.6586 1.0176 -1.7016 4.03534 -11.2401 -9.54023 -4.5461 0 1.42109e-14 113.305 -9.3346 -6.15034 -2.506 1.42109e-14 0 71.4335 -4.52072 -7.13527 -7.6901 0.6618 -3.9096 -3.28617 -26.781 -8.59922 -3.2119 -7.10543e-15 0 88.1865 -18.3452 -18.9248 -1.924 0 0 68.3112 -11.8989 -18.9733 8.7379 -0.0029 0.0005 20.9098 -26.9691 32.7335 0 -46.6676 1.42109e-14 -11.2153 69.5221 13.3773 0 -40.1476 0 7.44227 -34.4349 10.614 1.77636e-15 -8.8846 14.2294 0.0001 3.97569e-16 -4.96962e-17 -8.7379 0.0029 -0.0005 -5.58563 -30.4916 -13.9265 1.42109e-14 -46.6676 1.42109e-14 -69.9451 72.7877 62.1511 -7.10543e-15 -40.1476 -1.77636e-15 -10.5452 -30.1805 -14.4729 0 -8.8846 14.2294 -0 -3.18055e-15 -0 
4.54941 83.1436 94.041 -3.93176 0.232742 -37.7599 0 7.2397 1.42109e-14 2.82756 11.1888 8.40105 0 16.546 0 5.37506 24.6627 16.0343 -7.10543e-15 34.2149 -1.42109e-14 7.54172 24.1974 -5.73279 0 6.2923 0 -5.9703 -33.1094 4.43601 4.0639 26.6115 -1.1234 -2.72884 -6.81568 -22.29 14.1772 -2.84217e-14 -7.10543e-15 -64.2258 -8.52631 -58.5724 26.1234 0 0 -123.448 -21.3906 -97.52 27.7188 0 0 -1.07168 -26.0162 5.69023 2.2979 -0.4685 1.8313 37.1841 70.9488 -65.3922 5.2953 1.42109e-14 1.42109e-14 -13.655 2.43914 4.23129 3.0181 1.42109e-14 1.42109e-14 40.575 -4.26208 10.4488 9.3793 0.2991 2.5924 -15.7189 8.26172 2.10851 4.3461 0 -1.42109e-14 -27.9757 -1.11869 5.59659 2.1666 1.42109e-14 2.84217e-14 -30.2283 -1.57773 5.42759 9.4769 0.8376 0.2947 -15.5575 6.19107 1.8012 4.772 0 1.42109e-14 -44.233 -4.15788 10.4285 2.8722 7.10543e-15 0 -38.4623 -3.11867 10.6456 8.6586 1.0176 -1.7016 -12.8095 4.05761 0.0155078 4.5461 0 1.42109e-14 -68.2419 -4.98729 7.35473 2.506 0 0 -26.1841 0.226359 12.1003 7.6901 0.6618 -3.9096 -1.696 -16.7036 -0.578652 3.2119 0 -2.84217e-14 -48.2123 -6.75384 15.0248 1.924 0 0 -25.7169 -1.92461 10.2067 -4.0677 26.6109 -1.1234 -7.01782 -5.7005 -6.9762 -14.1772 0 0 54.7461 22.1422 27.6707 -26.1234 0 0 20.9538 4.49034 122.184 -27.7188 0 -1.42109e-14 -7.13511 0.348246 -6.34249 -2.2979 -0.4684 1.8313 -92.2025 72.3372 115.748 -5.2953 -1.42109e-14 0 20.8062 -0.164006 -7.80917 -3.0181 0 0 7.44364 -1.87406 -23.1506 -9.3793 0.2991 2.5924 -0.483064 -1.40423 -4.4621 -4.3461 0 -1.42109e-14 11.3883 0.0664268 -2.10804 -2.1666 -7.10543e-15 -2.84217e-14 35.2116 -1.89995 -5.61245 -9.4769 0.8376 0.2947 -5.74439 -0.492407 -10.345 -4.772 -1.77636e-15 0 99.6663 -15.9161 -13.5329 -2.8722 1.42109e-14 0 64.9769 -7.76861 -13.6636 -8.6586 1.0176 -1.7016 4.03534 -11.2401 -9.54023 -4.5461 0 0 113.305 -9.3346 -6.15034 -2.506 -2.84217e-14 0 71.4335 -4.52072 -7.13527 -7.6901 0.6618 -3.9096 -3.28617 -26.781 -8.59922 -3.2119 -7.10543e-15 0 88.1865 -18.3452 -18.9248 -1.924 0 0 68.3112 -11.8989 -18.9733 8.7379 -0.0029 0.0005 17.1322 -23.2661 29.7184 0 -46.6676 0 -13.9649 67.1658 14.51 0 -40.1476 0 10.0663 -36.8839 12.1401 0 -8.8846 14.2294 0.0001 0 -0 -8.7379 0.0029 -0.0005 0.0235113 -35.7735 -12.3585 0 -46.6676 0 -53.2392 72.9632 46.4453 -1.42109e-14 -40.1476 7.10543e-15 -8.76779 -32.1079 -14.9937 0 -8.8846 14.2294 1.59028e-15 -1.59028e-15 -0 
4.6349 83.568 99.2719 -4.05497 -0.16584 -35.6451 0 7.2397 0 2.75154 11.1367 8.07282 -7.10543e-15 16.546 0 5.15233 24.5359 15.5499 0 34.2149 0 7.66282 24.2257 -6.05639 0 6.2923 1.42109e-14 -4.93808 -33.0851 4.23362 4.0639 26.6115 -1.1234 -2.88275 -6.39483 -23.8645 14.1772 0 7.10543e-15 -62.9358 -9.2449 -58.2429 26.1234 2.84217e-14 1.42109e-14 -122.587 -20.4484 -96.9119 27.7188 -1.42109e-14 -1.42109e-14 0.171919 -26.6615 5.70735 2.2979 -0.4685 1.8313 37.1841 70.9488 -65.3922 5.2953 1.42109e-14 1.42109e-14 -13.655 2.43914 4.23129 3.0181 0 -1.42109e-14 40.575 -4.26208 10.4488 9.3793 0.2991 2.5924 -15.7189 8.26172 2.10851 4.3461 -1.42109e-14 0 -27.9757 -1.11869 5.59659 2.1666 7.10543e-15 0 -30.2283 -1.57773 5.42759 9.4769 0.8376 0.2947 -15.5575 6.19107 1.8012 4.772 0 0 -44.233 -4.15788 10.4285 2.8722 0 -1.42109e-14 -38.4623 -3.11867 10.6456 8.6586 1.0176 -1.7016 -12.8095 4.05761 0.0155078 4.5461 0 0 -68.2419 -4.98729 7.35473 2.506 0 0 -26.1841 0.226359 12.1003 7.6901 0.6618 -3.9096 -1.696 -16.7036 -0.578652 3.2119 -2.84217e-14 1.42109e-14 -48.2123 -6.75384 15.0248 1.924 0 1.42109e-14 -25.7169 -1.92461 10.2067 -4.0677 26.6109 -1.1234 -7.13994 -5.43677 -7.70689 -14.1772 0 -1.42109e-14 54.3407 23.9072 27.2268 -26.1234 0 0 20.8777 3.83112 123.305 -27.7188 7.10543e-15 -7.10543e-15 -8.59314 0.520433 -5.4999 -2.2979 -0.4684 1.8313 -92.2025 72.3372 115.748 -5.2953 1.42109e-14 0 20.8062 -0.164006 -7.80917 -3.0181 0 0 7.44364 -1.87406 -23.1506 -9.3793 0.2991 2.5924 -0.483064 -1.40423 -4.4621 -4.3461 0 0 11.3883 0.0664268 -2.10804 -2.1666 -7.10543e-15 -1.42109e-14 35.2116 -1.89995 -5.61245 -9.4769 0.8376 0.2947 -5.74439 -0.492407 -10.345 -4.772 3.55271e-15 0 99.6663 -15.9161 -13.5329 -2.8722 0 -2.84217e-14 64.9769 -7.76861 -13.6636 -8.6586 1.0176 -1.7016 4.03534 -11.2401 -9.54023 -4.5461 -7.10543e-15 0 113.305 -9.3346 -6.15034 -2.506 -2.84217e-14 -2.84217e-14 71.4335 -4.52072 -7.13527 -7.6901 0.6618 -3.9096 -3.28617 -26.781 -8.59922 -3.2119 -7.10543e-15 1.42109e-14 88.1865 -18.3452 -18.9248 -1.924 2.84217e-14 0 68.3112 -11.8989 -18.9733 8.7379 -0.0029 0.0005 14.0611 -19.2513 27.6478 0 -46.6676 0 -15.5213 65.428 14.5144 0 -40.1476 -1.42109e-14 12.5316 -39.9964 13.4113 1.77636e-15 -8.8846 14.2294 0.0001 -3.97569e-16 -0 -8.7379 0.0029 -0.0005 4.27953 -40.9397 -10.3132 -1.42109e-14 -46.6676 0 -36.6933 72.097 31.0046 -7.10543e-15 -40.1476 0 -2.37893 -33.5826 -12.313 1.42109e-14 -8.8846 14.2294 -1.19271e-15 0 -9.54166e-15 
4.56128 83.4764 105.001 -4.18896 -0.498921 -33.8955 0 7.2397 0 2.70001 11.0788 7.79206 0 16.546 0 4.94192 24.3989 15.1201 0 34.2149 1.42109e-14 7.76729 24.3141 -6.34079 0 6.2923 1.42109e-14 -4.13476 -32.9734 4.03221 4.0639 26.6115 -1.1234 -2.98536 -6.01192 -25.2076 14.1772 0 7.10543e-15 -61.9912 -9.88522 -57.8707 26.1234 0 -1.42109e-14 -121.609 -19.6759 -96.3369 27.7188 -1.42109e-14 -1.42109e-14 1.33863 -27.301 5.82732 2.2979 -0.4685 1.8313 37.1841 70.9488 -65.3922 5.2953 -1.42109e-14 0 -13.655 2.43914 4.23129 3.0181 0 0 40.575 -4.26208 10.4488 9.3793 0.2991 2.5924 -15.7189 8.26172 2.10851 4.3461 1.42109e-14 0 -27.9757 -1.11869 5.59659 2.1666 0 -1.42109e-14 -30.2283 -1.57773 5.42759 9.4769 0.8376 0.2947 -15.5575 6.19107 1.8012 4.772 1.42109e-14 -1.42109e-14 -44.233 -4.15788 10.4285 2.8722 0 0 -38.4623 -3.11867 10.6456 8.6586 1.0176 -1.7016 -12.8095 4.05761 0.0155078 4.5461 1.42109e-14 2.84217e-14 -68.2419 -4.98729 7.35473 2.506 0 -1.42109e-14 -26.1841 0.226359 12.1003 7.6901 0.6618 -3.9096 -1.696 -16.7036 -0.578652 3.2119 0 1.42109e-14 -48.2123 -6.75384 15.0248 1.924 1.77636e-15 0 -25.7169 -1.92461 10.2067 -4.0677 26.6109 -1.1234 -7.27194 -5.15179 -8.4684 -14.1772 0 -1.42109e-14 53.7655 25.8382 27.1346 -26.1234 -1.42109e-14 -1.42109e-14 21.2018 3.16669 124.179 -27.7188 -7.10543e-15 -2.13163e-14 -9.81223 0.939845 -4.5282 -2.2979 -0.4684 1.8313 -92.2025 72.3372 115.748 -5.2953 0 0 20.8062 -0.164006 -7.80917 -3.0181 -1.42109e-14 0 7.44364 -1.87406 -23.1506 -9.3793 0.2991 2.5924 -0.483064 -1.40423 -4.4621 -4.3461 7.10543e-15 -1.42109e-14 11.3883 0.0664268 -2.10804 -2.1666 0 1.42109e-14 35.2116 -1.89995 -5.61245 -9.4769 0.8376 0.2947 -5.74439 -0.492407 -10.345 -4.772 1.77636e-15 2.84217e-14 99.6663 -15.9161 -13.5329 -2.8722 1.42109e-14 0 64.9769 -7.76861 -13.6636 -8.6586 1.0176 -1.7016 4.03534 -11.2401 -9.54023 -4.5461 1.06581e-14 -1.42109e-14 113.305 -9.3346 -6.15034 -2.506 1.42109e-14 -2.84217e-14 71.4335 -4.52072 -7.13527 -7.6901 0.6618 -3.9096 -3.28617 -26.781 -8.59922 -3.2119 7.10543e-15 0 88.1865 -18.3452 -18.9248 -1.924 -1.42109e-14 0 68.3112 -11.8989 -18.9733 8.7379 -0.0029 0.0005 10.8082 -14.6064 25.5467 0 -46.6676 0 -16.0751 62.8887 13.5874 0 -40.1476 7.10543e-15 15.1264 -42.3905 15.0706 1.77636e-15 -8.8846 14.2294 0.0001 0 2.48481e-17 -8.7379 0.0029 -0.0005 8.2146 -44.3463 -8.17233 1.42109e-14 -46.6676 0 -22.8726 68.4881 18.1725 1.42109e-14 -40.1476 1.42109e-14 2.51829 -32.0585 -9.93839 1.42109e-14 -8.8846 14.2294 1.59028e-15 7.95139e-16 -0 
